<svg width="24" height="20" viewBox="0 0 24 20" fill="none" xmlns="http://www.w3.org/2000/svg">
<g clip-path="url(#clip0)">
<path d="M17.9434 19.6889C17.7271 19.6884 17.5114 19.6679 17.3001 19.6278C13.2775 18.9091 9.57156 17.2241 6.60889 14.7667C3.70944 12.3038 1.69851 9.16811 0.819417 5.73889C0.71576 5.3115 0.741202 4.86827 0.893293 4.45184C1.04538 4.03541 1.31901 3.65978 1.68784 3.36111L4.26094 1.22222C4.39236 1.11488 4.54852 1.03268 4.71922 0.980988C4.88991 0.929295 5.07132 0.90927 5.25158 0.92222C5.43849 0.939061 5.61887 0.991061 5.78001 1.07456C5.94116 1.15807 6.07916 1.27105 6.18433 1.40555L9.4007 5.51111C9.52132 5.67041 9.57954 5.85894 9.5668 6.04896C9.55407 6.23898 9.47104 6.42045 9.32994 6.56666L7.71532 8.23333C8.35837 9.46247 9.26905 10.5734 10.3978 11.5056C11.5192 12.4716 12.8447 13.2429 14.3025 13.7778L16.303 12.4056C16.4711 12.2909 16.6755 12.2231 16.8893 12.2112C17.103 12.1992 17.3158 12.2438 17.4995 12.3389L22.3563 15.05C22.5229 15.1359 22.6649 15.2533 22.7716 15.3934C22.8783 15.5335 22.9469 15.6926 22.9722 15.8588C22.9976 16.025 22.9791 16.194 22.9181 16.3531C22.8571 16.5123 22.7552 16.6575 22.62 16.7778L20.1112 18.9222C19.8263 19.1671 19.488 19.3609 19.116 19.4925C18.7439 19.6241 18.3454 19.6908 17.9434 19.6889ZM5.14866 2.02222L2.57556 4.16111C2.36807 4.32808 2.21448 4.53882 2.12989 4.7726C2.0453 5.00638 2.03262 5.25515 2.0931 5.49444C2.91052 8.7123 4.78953 11.6568 7.50304 13.9722C10.2911 16.2842 13.7786 17.8691 17.5639 18.5444C17.8504 18.5962 18.1473 18.5857 18.428 18.5139C18.7086 18.4422 18.9643 18.3114 19.172 18.1333L21.6808 15.9889L16.9913 13.3722L14.8428 14.85C14.7606 14.9062 14.6636 14.9442 14.5605 14.9607C14.4573 14.9771 14.3511 14.9716 14.251 14.9444C12.467 14.3768 10.8503 13.4757 9.51649 12.3056C8.1369 11.1929 7.06602 9.82556 6.38374 8.30555C6.35488 8.21353 6.35392 8.11665 6.38096 8.02422C6.408 7.93178 6.46212 7.84692 6.53813 7.77778L8.27497 5.98333L5.14866 2.02222Z" fill="white"/>
</g>
<defs>
<clipPath id="clip0">
<rect width="23.1579" height="20" fill="white" transform="translate(0.105469)"/>
</clipPath>
</defs>
</svg>
